<svg version="1" xmlns="http://www.w3.org/2000/svg" width="346.667" height="346.667" viewBox="0 0 260.000000 260.000000"><path d="M119.5 24.7c-9.2 1.3-18.9 4.8-24.4 8.8-13.5 10-23.8 31.5-22.9 48.2l.3 7.2-3.1 1.4c-2.7 1.4-3.2 2.1-3.7 6.9-.4 2.9-.7 9.1-.7 13.6 0 8.2.1 8.5 3.4 11.8 1.9 1.9 4 3.4 4.8 3.4.8 0 2 2.6 3.1 6.9 3.3 12.6 11.5 23.5 23.5 31.3l6.2 4.1v4.9c0 7.3-3.2 9.6-16.9 12.5-16.1 3.4-27.2 9.3-38.2 20.2-13 13.1-18.3 25.1-19.6 44.4l-.6 9.7H229v-6.5c0-9.8-2.6-21-7.2-30.5-3.3-6.8-5.7-10.1-12.7-17-11-11-22.1-16.9-38.2-20.3-8-1.7-11.3-2.9-13.8-4.9-3-2.6-3.2-3.2-2.9-8 .3-4.9.5-5.3 4.2-7.2 6.1-3.3 15.8-12.8 19.8-19.6 2-3.5 4.5-9.4 5.5-13.2 1.1-4.3 2.3-6.8 3.1-6.8.8 0 2.9-1.5 4.8-3.4 3.3-3.3 3.4-3.6 3.4-11.8 0-4.5-.3-10.7-.7-13.6-.5-4.7-1-5.5-3.7-6.9l-3.1-1.4.3-7.9c.7-14.3-5-30.6-14-40.6-5.3-5.7-14.8-11.2-24.3-13.9-5.8-1.7-23.3-2.7-30-1.8z"/></svg>